<svg width="50" height="50" viewBox="0 0 50 50" fill="none" xmlns="http://www.w3.org/2000/svg">
<rect width="50" height="50" rx="25" fill="url(#paint0_linear_347_57)"/>
<g filter="url(#filter0_d_347_57)">
<path d="M25.0066 26.4442C27.2316 26.4442 28.7298 24.7147 28.7298 22.2422V19.201C28.7298 16.717 27.2316 14.999 25.0066 14.999C22.7704 14.999 21.2721 16.717 21.2721 19.201V22.2422C21.2721 24.7147 22.7704 26.4442 25.0066 26.4442ZM17.001 22.4279C17.001 26.5074 19.3286 29.4952 22.8801 30.3375C23.5922 30.5063 24.1568 31.1033 24.1568 31.8352V31.8352C24.1568 32.6145 23.525 33.2463 22.7457 33.2463H20.0087C19.5391 33.2463 19.1589 33.6409 19.1589 34.1285C19.1589 34.616 19.5391 34.999 20.0087 34.999H29.9933C30.4629 34.999 30.843 34.616 30.843 34.1285C30.843 33.6409 30.4629 33.2463 29.9933 33.2463H27.2561C26.4769 33.2463 25.8451 32.6146 25.8451 31.8353V31.8353C25.8451 31.1034 26.4099 30.5064 27.1221 30.3381C30.6812 29.4966 33.001 26.5084 33.001 22.4279V20.0716C33.001 19.5841 32.632 19.201 32.1624 19.201C31.6928 19.201 31.3126 19.5841 31.3126 20.0716V22.3583C31.3126 26.3165 28.8305 28.9398 25.0066 28.9398C21.1715 28.9398 18.6893 26.3165 18.6893 22.3583V20.0716C18.6893 19.5841 18.3203 19.201 17.8396 19.201C17.3699 19.201 17.001 19.5841 17.001 20.0716V22.4279Z" fill="white"/>
</g>
<path d="M22.998 7.99707C22.998 7.87828 23.0974 7.77889 23.2138 7.77889H24.7823V6.21283C24.7823 6.09646 24.8793 5.99707 24.998 5.99707C25.1168 5.99707 25.2162 6.09646 25.2162 6.21283V7.77889H26.7823C26.8987 7.77889 26.998 7.87828 26.998 7.99707C26.998 8.11586 26.8987 8.21283 26.7823 8.21283H25.2162V9.78131C25.2162 9.89768 25.1168 9.99707 24.998 9.99707C24.8793 9.99707 24.7823 9.89768 24.7823 9.78131V8.21283H23.2138C23.0974 8.21283 22.998 8.11586 22.998 7.99707Z" fill="white"/>
<path d="M39.3671 25.2402C39.2508 25.2402 39.1514 25.1257 39.1514 24.9888C39.1514 24.852 39.2508 24.7402 39.3671 24.7402H42.9356C43.052 24.7402 43.1514 24.852 43.1514 24.9888C43.1514 25.1257 43.052 25.2402 42.9356 25.2402H39.3671Z" fill="white"/>
<path d="M8.99805 23.8002C8.80168 23.8002 8.64168 23.618 8.64168 23.4005C8.64168 23.1775 8.80168 22.998 8.99805 22.998C9.19683 22.998 9.35683 23.1775 9.35683 23.4005C9.35683 23.618 9.19683 23.8002 8.99805 23.8002ZM7.2138 25.2333C7.09744 25.2333 6.99805 25.1218 6.99805 24.9885C6.99805 24.8553 7.09744 24.7465 7.2138 24.7465H10.7823C10.8987 24.7465 10.998 24.8553 10.998 24.9885C10.998 25.1218 10.8987 25.2333 10.7823 25.2333H7.2138ZM8.99805 26.998C8.80168 26.998 8.64168 26.8186 8.64168 26.5956C8.64168 26.3753 8.80168 26.1959 8.99805 26.1959C9.19683 26.1959 9.35683 26.3753 9.35683 26.5956C9.35683 26.8186 9.19683 26.998 8.99805 26.998Z" fill="white"/>
<path d="M23.0758 43.922C22.9706 43.8168 22.9736 43.6424 23.0758 43.5402L24.6181 41.9979L23.0758 40.4586C22.9736 40.3564 22.9706 40.179 23.0758 40.0768C23.1781 39.9716 23.3554 39.9746 23.4577 40.0768L24.9969 41.6191L26.5392 40.0768C26.6414 39.9746 26.8158 39.9716 26.918 40.0768C27.0262 40.179 27.0232 40.3564 26.918 40.4586L25.3787 41.9979L26.918 43.5402C27.0232 43.6424 27.0262 43.8168 26.918 43.922C26.8158 44.0272 26.6414 44.0242 26.5392 43.922L24.9969 42.3797L23.4577 43.922C23.3554 44.0242 23.1781 44.0272 23.0758 43.922Z" fill="white"/>
<defs>
<filter id="filter0_d_347_57" x="16.9378" y="14.9864" width="16.1263" height="20.1263" filterUnits="userSpaceOnUse" color-interpolation-filters="sRGB">
<feFlood flood-opacity="0" result="BackgroundImageFix"/>
<feColorMatrix in="SourceAlpha" type="matrix" values="0 0 0 0 0 0 0 0 0 0 0 0 0 0 0 0 0 0 127 0" result="hardAlpha"/>
<feOffset dy="0.0505387"/>
<feGaussianBlur stdDeviation="0.0315867"/>
<feComposite in2="hardAlpha" operator="out"/>
<feColorMatrix type="matrix" values="0 0 0 0 0 0 0 0 0 0 0 0 0 0 0 0 0 0 0.1 0"/>
<feBlend mode="normal" in2="BackgroundImageFix" result="effect1_dropShadow_347_57"/>
<feBlend mode="normal" in="SourceGraphic" in2="effect1_dropShadow_347_57" result="shape"/>
</filter>
<linearGradient id="paint0_linear_347_57" x1="25" y1="0" x2="25" y2="50" gradientUnits="userSpaceOnUse">
<stop stop-color="#0651D8"/>
<stop offset="1" stop-color="#0548C2"/>
</linearGradient>
</defs>
</svg>
