<svg width="2048" height="2048" viewBox="0 0 2048 2048" fill="none" xmlns="http://www.w3.org/2000/svg">
<g filter="url(#filter0_d_242_11)">
<path d="M1024.17 1068.21C1093.15 1068.21 1139.59 1016.5 1139.59 942.572V851.639C1139.59 777.366 1093.15 726 1024.17 726C954.851 726 908.405 777.366 908.405 851.639V942.572C908.405 1016.5 954.851 1068.21 1024.17 1068.21ZM776 948.125C776 1084.18 865.772 1179.62 997.831 1190.73V1271.59H869.238C854.681 1271.59 842.896 1283.39 842.896 1297.97C842.896 1312.55 854.681 1324 869.238 1324H1178.76C1193.32 1324 1205.1 1312.55 1205.1 1297.97C1205.1 1283.39 1193.32 1271.59 1178.76 1271.59H1050.17V1190.73C1182.57 1179.62 1272 1084.18 1272 948.125V877.67C1272 863.093 1260.56 851.64 1246 851.64C1231.45 851.64 1219.66 863.093 1219.66 877.67V946.042C1219.66 1064.39 1142.71 1142.83 1024.17 1142.83C905.286 1142.83 828.338 1064.39 828.338 946.042V877.67C828.338 863.093 816.9 851.64 801.996 851.64C787.438 851.64 776 863.093 776 877.67V948.125Z" fill="white"/>
</g>
<path d="M950.493 407.543C950.493 411.85 954.096 415.365 958.315 415.365H1015.18V472.23C1015.18 476.449 1018.7 480.053 1023 480.053C1027.31 480.053 1030.91 476.449 1030.91 472.23V415.365H1087.69C1091.91 415.365 1095.51 411.85 1095.51 407.543C1095.51 403.236 1091.91 399.633 1087.69 399.633H1030.91V342.855C1030.91 338.637 1027.31 335.033 1023 335.033C1018.7 335.033 1015.18 338.637 1015.18 342.855V399.633H958.315C954.096 399.633 950.493 403.236 950.493 407.543Z" fill="white"/>
<path d="M1576.31 1033.54H1705.69C1709.91 1033.54 1713.51 1029.94 1713.51 1025.63C1713.51 1021.32 1709.91 1017.81 1705.69 1017.81H1576.31C1572.09 1017.81 1568.49 1021.32 1568.49 1025.63C1568.49 1029.94 1572.09 1033.54 1576.31 1033.54Z" fill="white"/>
<path d="M407 991.223C414.207 991.223 420.008 985.334 420.008 978.303C420.008 971.096 414.207 965.295 407 965.295C399.881 965.295 394.08 971.096 394.08 978.303C394.08 985.334 399.881 991.223 407 991.223ZM342.312 1037.54H471.688C475.906 1037.54 479.51 1033.94 479.51 1029.63C479.51 1025.32 475.906 1021.81 471.688 1021.81H342.312C338.094 1021.81 334.49 1025.32 334.49 1029.63C334.49 1033.94 338.094 1037.54 342.312 1037.54ZM407 1094.58C414.207 1094.58 420.008 1088.78 420.008 1081.57C420.008 1074.46 414.207 1068.65 407 1068.65C399.881 1068.65 394.08 1074.46 394.08 1081.57C394.08 1088.78 399.881 1094.58 407 1094.58Z" fill="white"/>
<path d="M966.84 1699.88C969.829 1702.96 975.014 1702.87 978.002 1699.88L1023 1654.79L1068.09 1699.88C1071.08 1702.87 1076.18 1702.96 1079.16 1699.88C1082.33 1696.8 1082.24 1691.71 1079.16 1688.72L1034.16 1643.63L1079.16 1598.63C1082.24 1595.64 1082.33 1590.46 1079.16 1587.47C1076.18 1584.39 1071.08 1584.48 1068.09 1587.47L1023 1632.56L978.002 1587.47C975.014 1584.48 969.829 1584.39 966.84 1587.47C963.764 1590.46 963.852 1595.64 966.84 1598.63L1011.93 1643.63L966.84 1688.72C963.852 1691.71 963.764 1696.8 966.84 1699.88Z" fill="white"/>
<defs>
<filter id="filter0_d_242_11" x="774.881" y="725.776" width="498.238" height="600.238" filterUnits="userSpaceOnUse" color-interpolation-filters="sRGB">
<feFlood flood-opacity="0" result="BackgroundImageFix"/>
<feColorMatrix in="SourceAlpha" type="matrix" values="0 0 0 0 0 0 0 0 0 0 0 0 0 0 0 0 0 0 127 0" result="hardAlpha"/>
<feOffset dy="0.895245"/>
<feGaussianBlur stdDeviation="0.559528"/>
<feComposite in2="hardAlpha" operator="out"/>
<feColorMatrix type="matrix" values="0 0 0 0 0 0 0 0 0 0 0 0 0 0 0 0 0 0 0.1 0"/>
<feBlend mode="normal" in2="BackgroundImageFix" result="effect1_dropShadow_242_11"/>
<feBlend mode="normal" in="SourceGraphic" in2="effect1_dropShadow_242_11" result="shape"/>
</filter>
</defs>
</svg>
