<svg width="333" height="277" viewBox="0 0 333 277" fill="none" xmlns="http://www.w3.org/2000/svg">
<path d="M267.385 70.9023C267.796 70.939 268.243 71.0023 268.61 71.2008C269.135 71.4852 269.252 71.978 269.378 72.5038C269.303 72.9302 269.211 73.2305 268.96 73.5917C267.71 75.3881 258.215 85.8147 256.517 87.0558C255.856 86.9021 255.473 86.756 254.91 86.3794C254.625 85.8662 254.423 85.4932 254.589 84.8864C255.023 83.2939 265.622 71.8794 267.385 70.9023Z" fill="#333333"/>
<path d="M225.351 47.1743C225.813 47.201 226.239 47.2177 226.677 47.3923C227.154 47.5826 227.558 47.9696 227.675 48.4878C227.965 49.7782 222.644 65.1052 221.632 66.4693C220.863 66.4707 220.309 66.4684 219.602 66.1451C219.216 65.7223 219.045 65.489 219.044 64.8981C219.042 63.132 223.419 50.3864 224.407 48.4204C224.645 47.9475 224.987 47.5532 225.351 47.1743Z" fill="#333333"/>
<path d="M246.422 57.3917C246.92 57.3785 247.594 57.3713 248.058 57.5933C248.559 57.8334 248.813 58.3036 248.892 58.8358C249.148 60.5472 241.051 73.8955 239.492 75.5368C238.978 75.5793 238.355 75.5495 237.904 75.2497C237.361 74.8903 237.309 74.704 237.125 74.1175C237.43 71.7899 244.726 59.8188 246.422 57.3917Z" fill="#333333"/>
<path d="M62.916 69.9951C63.36 70.0788 63.8356 70.1357 64.2349 70.365C65.9607 71.3561 76.1707 82.1995 76.3746 83.7734C76.4899 84.661 75.9686 85.2723 75.412 85.87C74.9494 85.8149 74.3806 85.7778 73.9769 85.5287C72.3482 84.5222 61.947 73.313 61.9045 71.9335C61.8769 71.0373 62.3318 70.5816 62.916 69.9951Z" fill="#333333"/>
<path d="M82.5957 56.6748L82.8634 56.6816C83.6398 56.7092 84.2452 56.6789 84.7954 57.311C86.1383 58.8537 87.1466 61.053 88.2291 62.8001C89.9689 65.6088 92.1112 68.513 93.5169 71.4998C93.7304 71.9529 93.8755 72.3842 93.8181 72.8925C93.7462 73.5295 93.2895 73.8953 92.8482 74.3005C92.2514 74.2245 91.6071 74.1653 91.0998 73.8103C89.954 73.0091 81.7859 59.6667 81.6187 58.3206C81.7674 57.5827 82.1165 57.2183 82.5957 56.6748Z" fill="#333333"/>
<path d="M104.997 46.73C105.067 46.7313 105.137 46.7309 105.207 46.7345C105.901 46.7729 106.581 46.7888 107.042 47.3734C107.791 48.3215 113.074 63.7217 112.823 64.9213C112.676 65.6235 112.131 65.8373 111.592 66.2117C111 66.1308 110.475 66.0679 110.013 65.6334C109.276 64.9398 103.792 49.4488 103.909 48.2515C103.976 47.5538 104.51 47.1627 104.997 46.73Z" fill="#333333"/>
<path d="M284.223 87.1729C284.923 87.2366 285.58 87.2895 286.109 87.8122C286.588 88.2856 286.561 88.5447 286.578 89.1677C285.763 91.0369 273.425 99.3809 270.936 100.973C270.712 101.002 270.317 101.062 270.101 101.045C269.57 101.003 269.24 100.79 268.963 100.344C268.741 99.9872 268.701 99.4256 268.78 99.03C269.096 97.4705 282.18 88.6215 284.223 87.1729Z" fill="#333333"/>
<path d="M299.245 106.46C299.517 106.494 299.553 106.487 299.85 106.592C300.448 106.805 300.949 107.152 301.229 107.726C301.238 108.024 301.215 108.259 301.068 108.529C299.958 110.574 285.661 116.026 282.652 117.213C282.417 117.191 282.337 117.194 282.084 117.11C281.388 116.88 280.935 116.672 280.633 116.021C280.685 115.621 280.647 115.703 280.816 115.317C281.168 114.511 282.188 113.926 282.916 113.513C284.849 112.416 287.054 111.679 289.096 110.801C292.475 109.348 295.804 107.762 299.245 106.46Z" fill="#333333"/>
<path d="M32.2087 105.953C32.8195 105.946 33.3924 105.996 33.9725 106.196C36.1559 106.95 48.9734 112.815 50.1404 113.98C50.5121 114.35 50.6785 114.736 50.6274 115.271C50.5641 115.935 49.9926 116.433 49.5458 116.869C49.0096 116.86 48.4982 116.809 47.9945 116.615C45.6207 115.701 32.9967 110.05 31.657 108.79C31.2153 108.374 31.1117 107.92 31.0864 107.331C31.3238 106.654 31.6733 106.386 32.2087 105.953Z" fill="#333333"/>
<path d="M45.7211 86.2739C46.133 86.2861 46.5883 86.2775 46.9771 86.4381C48.9336 87.2456 58.7524 95.2192 60.7676 97.0599C61.4816 97.7119 62.3375 98.4801 62.2548 99.5499C62.1991 100.271 61.8184 100.623 61.3288 101.075C60.8233 101.065 60.3263 101.042 59.8697 100.804C57.755 99.7018 47.6703 91.5659 45.5501 89.6067C44.9678 89.0682 44.6011 88.6423 44.6612 87.7936C44.7046 87.185 45.3146 86.6754 45.7211 86.2739Z" fill="#333333"/>
<path d="M216.737 191.55C217.415 191.62 218.094 191.774 218.623 192.226C219.003 192.552 219.274 192.998 219.241 193.528C219.185 194.428 218.439 195.441 217.976 196.194C205.912 215.829 193.393 235.224 181.057 254.691L172.418 268.386C170.841 270.931 169.295 274.172 167.268 276.361C166.956 276.467 166.772 276.592 166.436 276.512C165.653 276.324 165.094 275.633 164.646 275.006C162.709 272.291 161.088 269.044 159.319 266.19C155.092 259.457 150.9 252.702 146.745 245.926L117.79 199.362C116.941 198.082 115.704 196.565 115.316 195.077C115.143 194.412 115.18 193.691 115.64 193.137C115.967 192.743 116.37 192.529 116.891 192.606C117.977 192.768 118.92 193.981 119.517 194.801C121.634 197.711 123.417 201.009 125.332 204.065C129.189 210.175 133.005 216.31 136.781 222.47L166.493 270.432C168.865 266.473 171.467 262.628 173.929 258.723L193.134 228.328C199.048 218.77 205.065 209.277 211.184 199.849C212.803 197.333 214.532 193.509 216.737 191.55Z" fill="#333333"/>
<path d="M164.941 173.035C165.104 173.023 165.268 173.013 165.431 173.006C167.731 172.921 170.019 173.699 171.691 175.303C172.852 176.416 173.708 177.893 174.037 179.47C174.798 183.128 174.436 187.488 174.452 191.243L174.454 214.416C177.682 213.116 182.249 208.975 185.476 208.864C187.27 208.803 188.329 209.834 189.539 210.989C188.476 213.508 186.931 215.923 185.551 218.288C182.854 222.91 180.039 227.463 177.321 232.072L170.324 243.884C169.081 245.985 167.939 248.324 166.397 250.218C166.106 250.175 165.727 250.141 165.443 250.037C165.12 249.919 164.975 249.749 164.797 249.466C159.086 240.391 153.721 230.927 148.369 221.63C146.328 218.082 142.086 210.727 142.086 210.727C142.086 210.727 142.225 208.681 143.117 207.938C144.264 206.981 146.94 207.938 146.94 207.938C150.593 210.25 154.462 212.288 158.215 214.441C158.441 206.827 158.306 199.157 158.229 191.538C158.192 187.845 157.891 183.945 158.25 180.281C158.371 179.045 158.644 177.894 159.28 176.816C160.561 174.645 162.578 173.6 164.941 173.035Z" fill="#333333"/>
<path d="M145.69 0.20914C150.318 0.0517473 185.094 -0.284289 186.814 0.490829C187.687 3.80408 187.195 13.3437 187.193 17.2692C187.187 29.5837 187.058 41.912 187.232 54.2249C191.418 54.2348 206.136 53.7239 209.007 54.805C209.364 55.22 209.637 55.547 209.641 56.1243C209.646 56.7908 209.275 57.3831 208.875 57.8837C206.004 61.4687 202.295 64.7409 199.062 68.0113L176.43 90.5478C172.963 93.9446 169.515 97.3615 166.088 100.798C163.812 98.8198 161.71 96.5125 159.565 94.3865L145.177 80C139.274 74.2246 133.458 68.3627 127.729 62.4142C126.098 60.7064 124.196 59.0999 122.692 57.29C122.365 56.8957 122.063 56.3794 122.088 55.849C122.1 55.5858 122.201 55.1708 122.408 54.9831C123.915 53.624 141.534 54.1792 144.982 54.1693C145.269 49.5234 145.106 44.7926 145.11 40.1382L145.082 15.1649C145.064 10.9016 144.743 6.42492 145.084 2.19177C145.144 1.43469 145.331 0.875471 145.69 0.20914Z" fill="#333333"/>
<path d="M156.833 118.219C166.518 117.955 176.205 118.222 185.888 118.418C217.681 119.061 254.243 121.527 285.13 129.246C288.214 130.017 293.751 130.68 296.184 132.46C296.689 133.984 295.635 137.062 295.271 138.66C305.75 141.007 316.172 143.103 326.492 146.139C328.215 146.646 330.688 147.127 332.169 148.084C332.632 148.383 332.634 148.565 332.705 149.057C329.183 151.289 325.255 153.064 321.602 155.1C316.29 158.061 311.22 161.303 306.137 164.634C309.786 170.257 330.243 192.78 330.363 196.755C330.374 197.142 330.195 197.203 329.952 197.467C329.454 197.588 329.059 197.579 328.564 197.435C326.899 196.954 325.198 196.079 323.542 195.488C318.745 193.775 313.971 192.183 308.993 191.073C306.219 190.479 303.432 189.958 300.631 189.509C297.83 189.059 295.019 188.683 292.198 188.38C289.378 188.076 286.551 187.846 283.719 187.69C280.886 187.533 278.051 187.45 275.215 187.44C271.917 187.407 268.63 187.531 265.336 187.673C262.105 187.812 258.497 188.379 255.342 187.555C254.556 186.395 255.893 174.357 255.969 171.913C247.138 170.085 237.009 169.687 227.957 169.006C215.789 167.99 203.605 167.213 191.406 166.677C184.156 166.369 176.885 166.316 169.63 166.126C158.103 165.933 146.582 166.091 135.065 166.599C123.549 167.107 112.058 167.963 100.593 169.17C92.9255 169.967 85.1061 170.595 77.5231 172.006C78.1656 176.272 79.3878 184.42 78.9121 188.495C78.8276 188.623 78.7846 188.79 78.6594 188.878C78.5802 188.933 78.4658 188.876 78.3691 188.875C76.2603 188.829 74.1668 188.432 72.0747 188.177C69.0523 187.805 66.0212 187.529 62.9816 187.348C46.3271 186.353 27.482 188.44 11.8648 194.417C8.10386 195.856 4.53912 197.826 0.907015 199.561C7.21629 186.4 16.7186 175.167 27.7714 165.745C18.7067 160.004 8.81011 155.397 0 149.319C2.778 148.089 5.79745 147.228 8.6808 146.27C18.1262 143.133 27.6973 140.788 37.2403 138.025C36.723 135.957 36.0086 133.92 35.3671 131.887C43.8557 129.292 52.9443 127.803 61.6902 126.289C69.5519 125.004 77.4355 123.872 85.3412 122.892C93.2466 121.912 101.168 121.085 109.106 120.412C117.043 119.739 124.99 119.22 132.948 118.854C140.906 118.488 148.867 118.277 156.833 118.219Z" fill="#333333"/>
<path d="M102.266 149.037C102.266 149.037 102.266 146.119 102.275 143.21C102.275 140.309 102.284 137.408 102.284 137.408L107.351 137.103C110.112 136.945 111.737 138.23 111.737 140.554V140.571C111.728 142.091 110.872 143.402 109.509 143.987L112.086 148.399L109.177 148.583L106.897 144.511L104.826 144.643L104.817 148.871L102.266 149.037ZM104.826 142.808L107.054 142.677C108.338 142.598 109.107 141.864 109.107 140.72V140.702C109.107 139.593 108.303 138.937 107.028 139.016L104.835 139.147L104.826 142.808ZM117.293 148.26C114.498 148.426 112.803 146.818 112.803 144.066V144.057C112.803 141.331 114.533 139.488 117.197 139.348C119.88 139.199 121.548 140.816 121.548 143.384V144.11L115.267 144.459C115.284 145.831 116.07 146.591 117.346 146.512C118.368 146.451 118.988 145.883 119.172 145.403L119.189 145.35L121.478 145.219L121.452 145.307C121.155 146.591 119.897 148.111 117.293 148.26ZM117.241 141.087C116.219 141.139 115.45 141.821 115.293 142.991L119.163 142.773C119.015 141.602 118.272 141.025 117.241 141.087ZM127 147.718C124.222 147.866 122.501 146.259 122.509 143.498V143.489C122.509 140.763 124.257 138.981 126.991 138.85C129.481 138.745 131.045 140.082 131.141 141.925V141.978L128.826 142.083L128.809 142.013C128.66 141.209 128.066 140.615 127.026 140.667C125.812 140.72 125.043 141.742 125.034 143.367V143.376C125.034 145.053 125.803 145.962 127.026 145.892C128.031 145.848 128.651 145.245 128.817 144.372L128.826 144.302L131.15 144.188V144.241C131.019 146.11 129.446 147.596 127 147.718ZM136.532 147.264C133.762 147.386 132.015 145.805 132.024 143.044V143.026C132.024 140.3 133.824 138.562 136.541 138.457C139.284 138.361 141.084 139.951 141.075 142.685V142.694C141.066 145.446 139.302 147.15 136.532 147.264ZM136.549 145.455C137.764 145.403 138.541 144.433 138.541 142.79V142.773C138.55 141.13 137.755 140.213 136.541 140.257C135.344 140.309 134.557 141.288 134.557 142.93V142.948C134.549 144.599 135.326 145.507 136.549 145.455ZM142.351 146.87C142.351 146.87 142.351 144.756 142.359 142.651C142.359 140.545 142.368 138.431 142.368 138.431L144.858 138.361L144.849 139.837H144.902C145.181 138.789 145.924 138.169 146.999 138.142C147.27 138.134 147.523 138.169 147.715 138.203L147.706 140.222C147.497 140.152 147.156 140.117 146.798 140.126C145.566 140.152 144.849 140.851 144.849 142.074L144.841 146.783L142.351 146.87ZM151.795 146.774C149.497 146.827 148.082 145.21 148.091 142.493V142.485C148.091 139.75 149.515 138.09 151.813 138.046C153.115 138.029 154.128 138.623 154.626 139.636H154.67L154.678 135.277L157.177 135.25C157.177 135.25 157.177 138.072 157.168 140.894C157.16 143.708 157.16 146.53 157.16 146.53L154.661 146.556V145.123H154.617C154.128 146.128 153.115 146.748 151.795 146.774ZM152.634 144.861C153.848 144.843 154.67 143.882 154.678 142.371V142.362C154.678 140.851 153.848 139.907 152.643 139.925C151.402 139.951 150.625 140.894 150.625 142.432V142.441C150.616 143.952 151.385 144.887 152.634 144.861ZM162.498 146.503C162.498 146.503 162.498 143.69 162.507 140.877C162.515 138.055 162.515 135.242 162.515 135.242C162.515 135.242 164.56 135.242 166.595 135.259C168.631 135.277 170.676 135.303 170.676 135.303L170.667 137.251L165.093 137.19L165.084 139.898L170.352 139.951L170.344 141.794L165.084 141.742L165.075 144.573L170.658 144.634L170.649 146.591C170.649 146.591 168.614 146.556 166.569 146.53C164.534 146.512 162.498 146.503 162.498 146.503ZM178.547 149.544L178.556 145.368H178.504C178.023 146.329 177.001 146.905 175.682 146.87C173.384 146.809 171.977 145.132 171.977 142.415V142.406C171.986 139.689 173.419 138.09 175.734 138.134C177.027 138.169 178.023 138.824 178.513 139.837H178.565L178.574 138.369L181.064 138.439C181.064 138.439 181.055 141.235 181.055 144.022C181.046 146.827 181.046 149.631 181.046 149.631L178.547 149.544ZM176.538 144.983C177.761 145.018 178.565 144.083 178.574 142.581V142.572C178.574 141.052 177.761 140.082 176.547 140.047C175.315 140.021 174.52 140.947 174.511 142.458V142.467C174.511 143.987 175.297 144.957 176.538 144.983ZM185.79 147.22C183.772 147.141 182.636 145.909 182.636 143.926L182.645 138.483L185.135 138.57L185.126 143.533C185.126 144.643 185.685 145.307 186.804 145.35C187.922 145.394 188.639 144.66 188.639 143.559L188.647 138.693L191.137 138.798C191.137 138.798 191.137 140.921 191.129 143.035C191.129 145.158 191.129 147.29 191.129 147.29L188.63 147.167V145.77L188.577 145.761C188.114 146.722 187.171 147.281 185.79 147.22ZM195.471 147.639C193.636 147.543 192.404 146.407 192.404 144.905V144.887C192.404 143.341 193.697 142.502 195.969 142.476L198.232 142.458V141.934C198.24 141.183 197.707 140.685 196.729 140.632C195.803 140.589 195.235 140.973 195.113 141.515L195.095 141.585L192.823 141.48L192.832 141.392C192.963 139.82 194.414 138.763 196.842 138.876C199.201 138.99 200.73 140.195 200.73 141.917L200.722 147.779L198.223 147.639L198.232 146.364H198.179C197.646 147.211 196.676 147.7 195.471 147.639ZM194.868 144.905C194.868 145.534 195.427 145.936 196.283 145.979C197.41 146.04 198.232 145.411 198.232 144.511V143.9L196.344 143.917C195.383 143.935 194.877 144.284 194.868 144.896V144.905ZM205.981 148.251C203.937 148.137 202.984 147.351 202.993 145.507V141.104L201.718 141.034V139.287L203.002 139.348V137.26L205.518 137.391V139.479L207.187 139.575V141.331L205.518 141.235L205.509 145.394C205.509 146.189 205.894 146.486 206.645 146.53C206.864 146.547 207.03 146.53 207.178 146.521V148.242C206.899 148.268 206.497 148.286 205.981 148.251ZM209.869 138.614C209.118 138.57 208.541 137.994 208.541 137.33C208.541 136.666 209.118 136.15 209.869 136.194C210.62 136.238 211.197 136.814 211.197 137.478C211.197 138.142 210.62 138.658 209.869 138.614ZM208.602 148.233C208.602 148.233 208.602 146.084 208.611 143.935C208.611 141.794 208.611 139.654 208.611 139.654L211.118 139.794C211.118 139.794 211.11 141.943 211.11 144.083C211.11 146.233 211.101 148.391 211.101 148.391L208.602 148.233ZM216.972 148.941C214.194 148.758 212.446 146.967 212.446 144.162V144.145C212.455 141.384 214.246 139.802 216.981 139.96C219.724 140.134 221.524 141.925 221.524 144.721V144.73C221.515 147.561 219.75 149.125 216.972 148.941ZM216.99 147.098C218.204 147.176 218.982 146.259 218.982 144.573V144.555C218.99 142.886 218.195 141.873 216.972 141.794C215.775 141.724 214.989 142.642 214.989 144.302V144.319C214.98 146.005 215.758 147.019 216.99 147.098ZM222.8 149.151C222.8 149.151 222.808 146.984 222.808 144.817C222.808 142.659 222.808 140.501 222.808 140.501L225.316 140.659V142.083H225.359C225.831 141.122 226.775 140.58 228.155 140.667C230.173 140.798 231.318 142.091 231.309 144.118V149.745L228.811 149.57L228.819 144.442C228.819 143.306 228.251 142.624 227.142 142.554C226.023 142.485 225.316 143.201 225.307 144.328V149.325L222.8 149.151Z" fill="#F7F7F7"/>
</svg>
