<svg width="50" height="50" viewBox="0 0 50 50" fill="none" xmlns="http://www.w3.org/2000/svg">
<path fill-rule="evenodd" clip-rule="evenodd" d="M25 0C11.1929 0 0 11.1929 0 25C0 38.8071 11.1929 50 25 50C38.8071 50 50 38.8071 50 25C50 11.1929 38.8071 0 25 0ZM28.7288 22.2433C28.7288 24.7158 27.2305 26.4453 25.0055 26.4453C22.7693 26.4453 21.271 24.7158 21.271 22.2433V19.2021C21.271 16.7181 22.7693 15.0001 25.0055 15.0001C27.2305 15.0001 28.7288 16.7181 28.7288 19.2021V22.2433ZM22.879 30.3386C19.3275 29.4963 16.9999 26.5085 16.9999 22.4291V20.0727C16.9999 19.5852 17.3689 19.2021 17.8385 19.2021C18.3192 19.2021 18.6882 19.5852 18.6882 20.0727V22.3594C18.6882 26.3176 21.1704 28.941 25.0055 28.941C28.8294 28.941 31.3116 26.3176 31.3116 22.3594V20.0727C31.3116 19.5852 31.6917 19.2021 32.1613 19.2021C32.6309 19.2021 32.9999 19.5852 32.9999 20.0727V22.4291C32.9999 26.5095 30.6801 29.4977 27.121 30.3392C26.4088 30.5076 25.8441 31.1045 25.8441 31.8364C25.8441 32.6157 26.4758 33.2474 27.255 33.2474H29.9922C30.4618 33.2474 30.842 33.6421 30.842 34.1296C30.842 34.6171 30.4618 35.0001 29.9922 35.0001H20.0076C19.538 35.0001 19.1578 34.6171 19.1578 34.1296C19.1578 33.6421 19.538 33.2474 20.0076 33.2474H22.7446C23.5239 33.2474 24.1557 32.6156 24.1557 31.8363C24.1557 31.1044 23.5911 30.5075 22.879 30.3386ZM23 8C23 7.88121 23.0994 7.78182 23.2158 7.78182H24.7842V6.21576C24.7842 6.09939 24.8812 6 25 6C25.1188 6 25.2182 6.09939 25.2182 6.21576V7.78182H26.7842C26.9006 7.78182 27 7.88121 27 8C27 8.11879 26.9006 8.21576 26.7842 8.21576H25.2182V9.78424C25.2182 9.90061 25.1188 10 25 10C24.8812 10 24.7842 9.90061 24.7842 9.78424V8.21576H23.2158C23.0994 8.21576 23 8.11879 23 8ZM39.1509 24.9888C39.1509 25.1257 39.2503 25.2402 39.3666 25.2402H42.9351C43.0515 25.2402 43.1509 25.1257 43.1509 24.9888C43.1509 24.852 43.0515 24.7402 42.9351 24.7402H39.3666C39.2503 24.7402 39.1509 24.852 39.1509 24.9888ZM9 23.8022C8.80364 23.8022 8.64364 23.62 8.64364 23.4024C8.64364 23.1795 8.80364 23 9 23C9.19879 23 9.35879 23.1795 9.35879 23.4024C9.35879 23.62 9.19879 23.8022 9 23.8022ZM7.21576 25.2352C7.09939 25.2352 7 25.1237 7 24.9905C7 24.8572 7.09939 24.7485 7.21576 24.7485H10.7842C10.9006 24.7485 11 24.8572 11 24.9905C11 25.1237 10.9006 25.2352 10.7842 25.2352H7.21576ZM9 27C8.80364 27 8.64364 26.8205 8.64364 26.5976C8.64364 26.3773 8.80364 26.1978 9 26.1978C9.19879 26.1978 9.35879 26.3773 9.35879 26.5976C9.35879 26.8205 9.19879 27 9 27ZM23.0778 43.5411C22.9756 43.6434 22.9726 43.8177 23.0778 43.923C23.18 44.0282 23.3574 44.0252 23.4596 43.923L24.9989 42.3807L26.5411 43.923C26.6434 44.0252 26.8177 44.0282 26.92 43.923C27.0282 43.8177 27.0252 43.6434 26.92 43.5411L25.3807 41.9989L26.92 40.4596C27.0252 40.3574 27.0282 40.18 26.92 40.0778C26.8177 39.9726 26.6434 39.9756 26.5411 40.0778L24.9989 41.6201L23.4596 40.0778C23.3574 39.9756 23.18 39.9726 23.0778 40.0778C22.9726 40.18 22.9756 40.3574 23.0778 40.4596L24.6201 41.9989L23.0778 43.5411Z" fill="black"/>
</svg>
